<?xml version="1.0" encoding="utf-8"?>
<!-- Generator: Adobe Illustrator 26.0.1, SVG Export Plug-In . SVG Version: 6.00 Build 0)  -->
<svg version="1.0" id="Layer_1" xmlns="http://www.w3.org/2000/svg" xmlns:xlink="http://www.w3.org/1999/xlink" x="0px" y="0px"
	 viewBox="0 0 512 512" style="enable-background:new 0 0 512 512;" xml:space="preserve">
<style type="text/css">
	.st0{display:none;}
	.st1{display:inline;fill:#FFFFFF;}
	.st2{display:inline;}
	.st3{fill:#FFFFFF;}
	.st4{fill:none;}
</style>
<g class="st0">
	<path class="st1" d="M256,247.9c-25.3,0-49.1-9.9-67-27.8c-17.9-17.9-27.8-41.7-27.8-67s9.9-49.1,27.8-67
		c17.9-17.9,41.7-27.8,67-27.8c25.3,0,49.1,9.9,67,27.8c17.9,17.9,27.8,41.7,27.8,67s-9.9,49.1-27.8,67
		C305.1,238,281.3,247.9,256,247.9z M256,73.1c-44.1,0-80,35.9-80,80s35.9,80,80,80s80-35.9,80-80S300.1,73.1,256,73.1z"/>
	<path class="st1" d="M287.8,158.5L287.8,158.5c-2.6-3.8-6.6-7-11.8-9.4c-3.5-1.6-10-3.5-19.4-5.6c-11.1-2.5-15-4.5-16.3-5.7
		c-1.8-1.6-2.7-3.7-2.7-6.3c0-3,1.3-5.5,4-7.7c2.8-2.2,7.5-3.4,13.9-3.4c6.1,0,10.8,1.3,13.8,3.8c2.1,1.7,3.6,4.1,4.5,7.1
		c0.9,3.2,3.7,5.3,7,5.3c0.2,0,0.4,0,0.6,0l0.1,0c1.7-0.1,3.2-0.8,4.5-1.9c2.1-1.9,2.9-4.8,2.1-7.4c-0.8-2.7-1.9-5.2-3.4-7.5
		c-2.8-4.3-6.8-7.5-12-9.7c-5.1-2.1-11-3.2-17.5-3.2c-6,0-11.5,1-16.4,3.1c-5,2.1-8.9,5.2-11.6,9.3c-2.6,4-4,8.5-4,13.1
		c0,4.3,1.1,8.2,3.3,11.7c2.2,3.4,5.5,6.3,9.8,8.6c3.3,1.7,9,3.6,17,5.5c7.8,1.9,12.8,3.3,15.1,4.1c3.3,1.2,5.6,2.8,6.9,4.5
		c1.3,1.7,2,3.7,2,6c0,2.3-0.7,4.4-2.1,6.3c-1.4,1.9-3.6,3.5-6.6,4.7c-3.1,1.2-6.7,1.8-10.8,1.8c-4.6,0-8.8-0.8-12.5-2.4
		c-3.6-1.6-6.2-3.6-7.9-6c-1-1.5-1.9-3.4-2.4-5.5c-0.9-3.2-3.8-5.5-7.1-5.5c-0.2,0-0.4,0-0.6,0c-2.1,0.2-4.1,1.3-5.3,3
		c-1.3,1.7-1.7,3.9-1.2,6c0.8,3.4,2.2,6.7,4.2,9.7c3.2,4.8,7.6,8.5,13.2,10.9c5.5,2.4,12.3,3.5,20.3,3.5c6.4,0,12.2-1.2,17.3-3.5
		c5.2-2.4,9.2-5.8,12-10.1c2.8-4.3,4.2-9,4.2-13.9C291.7,166.8,290.4,162.4,287.8,158.5z"/>
	<path class="st1" d="M256,211c-4.1,0-7.4-3.3-7.4-7.4v-5.4c0-4.1,3.3-7.4,7.4-7.4c4.1,0,7.4,3.3,7.4,7.4v5.4
		C263.4,207.7,260.1,211,256,211z M256,115.3c-4.1,0-7.4-3.3-7.4-7.4v-5.4c0-4.1,3.3-7.4,7.4-7.4c4.1,0,7.4,3.3,7.4,7.4v5.4
		C263.4,112,260.1,115.3,256,115.3z"/>
	<g class="st2">
		<path class="st3" d="M361.4,291.6H150.6c-10.4,0-20.4-2.1-29.9-6.3l-36.4-15.9c-3.7-1.6-5.4-6-3.8-9.8c1.6-3.7,6-5.5,9.8-3.8
			l36.3,15.9c7.6,3.3,15.7,5,23.9,5h210.8c8.3,0,16.3-1.7,23.9-5l36.3-15.9c3.7-1.6,8.1,0.1,9.8,3.8c1.6,3.7-0.1,8.1-3.8,9.8
			l-36.3,15.9C381.8,289.5,371.7,291.6,361.4,291.6z"/>
		<path class="st3" d="M433.6,412.4H78.4c-15.9,0-28.8-12.9-28.8-28.8v-69.3c0-8.8,2.9-17.5,8.2-24.5l68.1-90.9
			c11-14.6,26.9-24.7,44.8-28.3c4-0.8,7.9,1.8,8.7,5.8c0.8,4-1.8,7.9-5.8,8.7c-14.4,2.9-27.1,11-35.9,22.7l-68.1,90.9
			c-3.4,4.5-5.2,10-5.2,15.6v69.3c0,7.7,6.3,14,14,14h355.3c7.7,0,14-6.3,14-14v-69.3c0-5.6-1.8-11.2-5.2-15.6l-68.1-90.9
			c-8.8-11.7-21.5-19.8-35.9-22.7c-4-0.8-6.6-4.7-5.8-8.7c0.8-4,4.7-6.6,8.7-5.8c17.9,3.6,33.9,13.7,44.8,28.3l68.1,90.9
			c5.3,7,8.2,15.7,8.2,24.5v69.3C462.4,399.5,449.5,412.4,433.6,412.4z"/>
		<path class="st3" d="M312.1,370H199.9c-7.7,0-14.5-5.2-16.6-12.5l-4.7-16.3c-1.5-5.3-0.5-10.8,2.8-15.2c3.3-4.4,8.3-6.9,13.8-6.9
			h121.5c5.5,0,10.5,2.5,13.8,6.9c3.3,4.4,4.3,9.9,2.8,15.2l-4.7,16.3C326.6,364.9,319.8,370,312.1,370z M195.2,333.9
			c-1.1,0-1.7,0.6-2,1c-0.3,0.4-0.7,1.2-0.4,2.2l4.7,16.3c0.3,1.1,1.3,1.8,2.4,1.8h112.2c1.1,0,2.1-0.7,2.4-1.8l4.7-16.3
			c0.3-1-0.1-1.8-0.4-2.2c-0.3-0.4-0.9-1-2-1H195.2z M408.3,367.2c-0.3,0-0.7,0-1,0l-25.8-1.3c-11.4-0.6-20.3-9.9-20.3-21.3
			c0-11.4,8.9-20.8,20.3-21.3l25.8-1.3c5.8-0.3,11.6,1.8,15.8,5.9c4.2,4,6.6,9.7,6.6,15.5v2.6c0,5.8-2.4,11.5-6.6,15.5
			C419.1,365.1,413.8,367.2,408.3,367.2z M408.4,336.7c-0.1,0-0.2,0-0.3,0l-25.8,1.3c-3.5,0.2-6.2,3.1-6.2,6.6
			c0,3.5,2.7,6.4,6.2,6.6l25.8,1.3l0,0c1.8,0.1,3.5-0.5,4.9-1.8c1.3-1.3,2-2.9,2-4.8v-2.6c0-1.8-0.7-3.5-2-4.8
			C411.6,337.4,410,336.7,408.4,336.7z M103.7,367.2c-5.5,0-10.8-2.1-14.7-5.9c-4.2-4-6.6-9.7-6.6-15.5v-2.6
			c0-5.8,2.4-11.5,6.6-15.5c4.2-4,10-6.1,15.8-5.9l25.8,1.3c11.4,0.6,20.3,9.9,20.3,21.3c0,11.4-8.9,20.8-20.3,21.3l-25.8,1.3l0,0
			C104.4,367.2,104,367.2,103.7,367.2z M103.6,336.7c-1.7,0-3.3,0.6-4.5,1.8c-1.3,1.3-2,2.9-2,4.8v2.6c0,1.8,0.7,3.5,2,4.8
			c1.3,1.3,3,1.9,4.8,1.8l0,0l25.8-1.3c3.5-0.2,6.2-3.1,6.2-6.6s-2.7-6.4-6.2-6.6l-25.8-1.3C103.9,336.7,103.8,336.7,103.6,336.7z
			 M120.7,453.7h-15c-14.3,0-25.9-11.6-25.9-25.9V405c0-4.1,3.3-7.4,7.4-7.4h52c4.1,0,7.4,3.3,7.4,7.4v22.8
			C146.6,442.1,135,453.7,120.7,453.7z M94.6,412.4v15.4c0,6.1,5,11.1,11.1,11.1h15c6.1,0,11.1-5,11.1-11.1v-15.4H94.6z
			 M406.3,453.7h-15c-14.3,0-25.9-11.6-25.9-25.9V405c0-4.1,3.3-7.4,7.4-7.4h52c4.1,0,7.4,3.3,7.4,7.4v22.8
			C432.2,442.1,420.6,453.7,406.3,453.7z M380.2,412.4v15.4c0,6.1,5,11.1,11.1,11.1h15c6.1,0,11.1-5,11.1-11.1v-15.4H380.2z"/>
		<g>
			<path class="st3" d="M76,285.2H34.4c-8.5,0-15.4-6.9-15.4-15.4v-14.3c0-8.5,6.9-15.4,15.4-15.4H63c5.9,0,11.4,3.4,13.9,8.8
				l9.7,20.4c1.8,3.7,0.2,8.1-3.4,9.8C82.7,282.5,79.6,285.2,76,285.2z M34.4,254.8c-0.3,0-0.6,0.3-0.6,0.6v14.3
				c0,0.3,0.3,0.6,0.6,0.6h36.4l-7.2-15.2c-0.1-0.2-0.3-0.4-0.6-0.4L34.4,254.8L34.4,254.8z M477.6,285.2H436
				c-3.7,0-6.7-2.7-7.3-6.1c-3.6-1.8-5.2-6.2-3.4-9.8l9.7-20.4c2.5-5.3,8-8.8,13.9-8.8h28.6c8.5,0,15.4,6.9,15.4,15.4v14.3
				C493,278.2,486.1,285.2,477.6,285.2z M441.2,270.4h36.4c0.3,0,0.6-0.3,0.6-0.6v-14.3c0-0.3-0.3-0.6-0.6-0.6H449
				c-0.2,0-0.5,0.1-0.6,0.4L441.2,270.4z"/>
		</g>
	</g>
</g>
<g>
	<path class="st3" d="M122.8,232.1c62-0.2,112.3,50,112.5,111.9c0,0.2,0,0.4,0,0.7c0.2,62-50,112.3-111.9,112.5c-0.2,0-0.4,0-0.6,0
		c-62,0.2-112.4-49.9-112.6-111.8c0-0.2,0-0.4,0-0.7C10,282.8,60.1,232.4,122,232.1C122.3,232.1,122.6,232.1,122.8,232.1z
		 M187.9,279.6c-35.7-35.9-93.8-36.1-129.8-0.4c-0.1,0.1-0.3,0.3-0.4,0.4c-36,35.7-36.2,93.8-0.5,129.8c0.2,0.2,0.3,0.3,0.5,0.5
		c35.7,35.9,93.8,36.1,129.8,0.4c0.1-0.1,0.3-0.3,0.4-0.4c36-35.7,36.2-93.8,0.5-129.8C188.2,279.9,188.1,279.7,187.9,279.6z
		 M111.2,117.7c-3.4,4.5-2.4,10.9,2.1,14.3c4.5,3.4,10.9,2.4,14.3-2.1l0,0c15.2-20.2,43.8-24.2,64-9c5.4,4.1,9.9,9.3,13,15.3
		c3,4.8,9.4,6.3,14.2,3.2c4.3-2.7,6-8.1,4-12.8c-16.9-32.3-56.8-44.9-89.1-28C124.8,103.3,117.1,109.8,111.2,117.7L111.2,117.7z
		 M383.8,129.9c3.4,4.5,9.7,5.4,14.3,2.1c4.5-3.4,5.4-9.7,2.1-14.3c-21.8-29.2-63.2-35.3-92.4-13.5c-8,6-14.5,13.6-19.1,22.5
		c-2.6,5-0.7,11.2,4.4,13.9s11.2,0.7,13.9-4.4c11.6-22.4,39.1-31.1,61.5-19.5C374.4,119.9,379.7,124.4,383.8,129.9z"/>
	<path class="st3" d="M125.7,261.4c-5.6-0.2-10.4,4.2-10.6,9.9c-0.2,5.6,4.2,10.4,9.9,10.6c33.9,1.1,60.7,29,60.6,62.9
		c0,5.7,4.6,10.3,10.3,10.3c5.7,0,10.3-4.6,10.3-10.3C206.3,299.8,170.6,262.9,125.7,261.4L125.7,261.4z M391,261.4
		c-5.6-0.2-10.4,4.3-10.5,9.9c-0.2,5.6,4.3,10.4,9.9,10.5c33.9,1.1,60.7,29,60.6,62.9c0.5,5.6,5.6,9.8,11.2,9.2
		c4.9-0.5,8.8-4.3,9.2-9.2C471.6,299.8,435.9,262.9,391,261.4L391,261.4z"/>
	<path class="st3" d="M389.1,232.1c62-0.2,112.4,49.9,112.6,111.8c0,0.3,0,0.5,0,0.8c0.2,62-50,112.3-111.9,112.5
		c-0.2,0-0.4,0-0.6,0c-62,0.2-112.3-50-112.5-111.9c0-0.2,0-0.4,0-0.6c-0.2-62,49.9-112.4,111.8-112.6
		C388.7,232.1,388.9,232.1,389.1,232.1z M454.4,279.6c-35.7-36-93.8-36.2-129.8-0.5c-0.2,0.2-0.3,0.3-0.5,0.5
		c-36,35.7-36.2,93.8-0.5,129.8c0.2,0.2,0.3,0.3,0.5,0.5c35.7,35.9,93.8,36.1,129.8,0.4c0.1-0.1,0.3-0.3,0.4-0.4
		c36-35.7,36.2-93.8,0.5-129.8C454.6,279.9,454.4,279.7,454.4,279.6L454.4,279.6z"/>
	<path class="st3" d="M223.7,316.8c-5.7,0-10.3,4.6-10.3,10.3c0,5.7,4.6,10.3,10.3,10.3h63.7c5.7,0,10.3-4.6,10.3-10.3
		c0-5.7-4.6-10.3-10.3-10.3H223.7z M223.7,352c-5.7,0-10.3,4.6-10.3,10.3c0,5.7,4.6,10.3,10.3,10.3h63.7c5.7,0,10.3-4.6,10.3-10.3
		c0-5.7-4.6-10.3-10.3-10.3H223.7z M223.7,154.2c-5.6,0.5-9.8,5.6-9.2,11.2c0.5,4.9,4.3,8.8,9.2,9.2h63.7c5.6-0.5,9.8-5.6,9.2-11.2
		c-0.5-4.9-4.3-8.8-9.2-9.2H223.7z M20.9,296.9c-1.9,5.3,0.9,11.2,6.2,13.1c4.4,1.6,9.4-0.1,12-4L127,129.9
		c1.9-5.3-0.9-11.2-6.2-13.1c-4.4-1.6-9.4,0.1-12,4L20.9,296.9z"/>
	<path class="st3" d="M212.7,323.8c0.3,5.6,5,10,10.7,9.7c5.6-0.3,10-5,9.7-10.7l0,0l-9.2-192c-0.3-5.6-5.1-10-10.7-9.7
		c-5.6,0.3-10,5.1-9.7,10.7L212.7,323.8L212.7,323.8z M278.5,322.9c-0.2,5.6,4.1,10.4,9.8,10.7c5.6,0.2,10.4-4.1,10.7-9.8l7.5-189.5
		c0.2-5.6-4.2-10.4-9.8-10.6c-5.6-0.2-10.4,4.2-10.6,9.8l0,0L278.5,322.9z M472.1,305.6c2.8,4.9,9,6.7,14,3.9
		c4.6-2.6,6.5-8.3,4.3-13.1l-87.8-176c-2.9-4.9-9.2-6.4-14.1-3.5c-4.3,2.6-6.1,8-4.2,12.6L472.1,305.6L472.1,305.6z M145.7,67.1
		c9.9-10.1,24.3-14.5,38.2-11.6c12.1,2.5,22.8,9.4,30,19.4c1.9,2.7,2.4,6,1.4,8.9l-7.8,31.4c-1.5,5.5-7.1,8.7-12.6,7.3
		c-1.5-0.4-3-1.2-4.1-2.2c-12.4-9-28.5-11.1-42.8-5.8c-5.3,1.9-11.2-0.9-13.1-6.2c-0.8-2.2-0.8-4.6,0-6.8l7.4-28.9l9.9,2.5l-9.9-2.6
		C142.8,70.4,144,68.5,145.7,67.1L145.7,67.1z M162.9,79.4c-0.6,0.4-1.1,0.8-1.6,1.2l-2.9,10.8c9-0.9,18.1,0.2,26.6,3.2
		c2,0.7,4,1.4,6,2.3l3.5-13.6c-4-3.9-9-6.6-14.4-7.7C174.1,74.5,167.9,75.8,162.9,79.4L162.9,79.4z M347.3,80.7
		c-5.1-4.5-12-6.3-18.7-5c-5.4,1.1-10.4,3.8-14.4,7.7l3.4,13.6c10.2-4.6,21.5-6.5,32.6-5.5L347.3,80.7L347.3,80.7z M357.5,62.7
		c1.9,1.3,3.8,2.8,5.5,4.4c1.6,1.3,2.9,3.3,3.4,5.4l-9.9,2.6l9.9-2.5l7.4,28.9c1.9,5.3-0.9,11.2-6.3,13.1c-2.3,0.8-4.7,0.8-7-0.1
		c-14.3-5.4-30.3-3.2-42.7,5.8c-4.3,3.7-10.8,3.3-14.5-1c-1.1-1.2-1.8-2.6-2.2-4.2l-7.8-31.3c-1-3-0.5-6.3,1.3-8.9
		c7.3-10,18-16.9,30-19.4C336.2,53.2,348.1,55.8,357.5,62.7L357.5,62.7z"/>
	<path class="st4" d="M-71.7-71.7h655.4v655.4H-71.7V-71.7z"/>
</g>
</svg>
